<svg width="1288.2" height="188.2" viewBox="0 0 1288.2 188.2" xmlns="http://www.w3.org/2000/svg"><g id="svgGroup" stroke-linecap="round" fill-rule="evenodd" font-size="9pt" stroke="#000" stroke-width="0.25mm" fill="#000" style="stroke:#000;stroke-width:0.25mm;fill:#000"><path d="M 149.6 162.4 L 116.4 129.2 C 109 136.6 98.8 141 87.6 141 C 65.2 141 47 122.8 47 100.4 C 47 78 65.2 59.8 87.6 59.8 C 98.8 59.8 109 64.4 116.4 71.8 L 149.6 38.4 C 133.8 22.6 111.8 12.8 87.6 12.8 C 39.2 12.8 0 52 0 100.4 C 0 148.8 39.2 188.2 87.6 188.2 C 111.8 188.2 133.8 178.4 149.6 162.4 Z M 113.4 126.2 L 110.4 123.2 C 104.6 129.2 96.6 132.8 87.6 132.8 C 69.8 132.8 55.4 118.2 55.4 100.4 C 55.4 82.6 69.8 68.2 87.6 68.2 C 96.6 68.2 104.6 71.8 110.6 77.6 L 113.4 74.6 C 106.8 68 97.8 64 87.6 64 C 67.6 64 51.2 80.4 51.2 100.4 C 51.2 120.6 67.6 137 87.6 137 C 97.8 137 106.8 132.8 113.4 126.2 Z M 107.6 120.4 L 104.6 117.4 C 100.2 121.8 94.2 124.4 87.6 124.4 C 74.4 124.4 63.6 113.6 63.6 100.4 C 63.6 87.2 74.4 76.4 87.6 76.4 C 94.2 76.4 100.2 79.2 104.6 83.6 L 107.6 80.6 C 102.6 75.4 95.4 72.2 87.6 72.2 C 72.2 72.2 59.4 85 59.4 100.4 C 59.4 116 72.2 128.6 87.6 128.6 C 95.4 128.6 102.4 125.4 107.6 120.4 Z M 101.6 114.6 L 98.8 111.6 C 95.8 114.4 92 116.2 87.6 116.2 C 79 116.2 72 109 72 100.4 C 72 91.8 79 84.8 87.6 84.8 C 92 84.8 96 86.6 98.8 89.4 L 101.8 86.4 C 98.2 82.8 93.2 80.6 87.6 80.6 C 76.8 80.6 67.8 89.4 67.8 100.4 C 67.8 111.4 76.8 120.4 87.6 120.4 C 93.2 120.4 98 118 101.6 114.6 Z" id="0" vector-effect="non-scaling-stroke"/><path d="M 231 12.8 C 182.2 12.8 143.6 52.4 143.6 100.8 C 143.6 150.8 184.6 188 231.2 188 C 278.6 188 319 150 319 100.6 C 319 52 279.8 12.8 231 12.8 Z M 271.8 100.4 C 271.8 122.8 253.6 141 231.2 141 C 208.8 141 190.6 122.8 190.6 100.4 C 190.6 78 208.8 59.8 231.2 59.8 C 253.6 59.8 271.8 78 271.8 100.4 Z M 231.2 136.6 C 251.2 136.6 267.4 120.4 267.4 100.4 C 267.4 80.4 251.2 64.2 231.2 64.2 C 211.4 64.2 195.2 80.4 195.2 100.4 C 195.2 120.4 211.4 136.6 231.2 136.6 Z M 231.2 68.4 C 248.8 68.4 263.2 82.8 263.2 100.4 C 263.2 118 248.8 132.4 231.2 132.4 C 213.6 132.4 199.4 118 199.4 100.4 C 199.4 82.8 213.6 68.4 231.2 68.4 Z M 231.2 127.8 C 246.4 127.8 258.6 115.4 258.6 100.4 C 258.6 85.2 246.4 73 231.2 73 C 216.2 73 203.8 85.2 203.8 100.4 C 203.8 115.4 216.2 127.8 231.2 127.8 Z M 231.2 77.2 C 244 77.2 254.4 87.6 254.4 100.4 C 254.4 113.2 244 123.6 231.2 123.6 C 218.4 123.6 208 113.2 208 100.4 C 208 87.6 218.4 77.2 231.2 77.2 Z M 231.2 119 C 241.6 119 250 110.6 250 100.4 C 250 90 241.6 81.6 231.2 81.6 C 221 81.6 212.6 90 212.6 100.4 C 212.6 110.6 221 119 231.2 119 Z M 231.2 85.8 C 239.2 85.8 245.8 92.4 245.8 100.4 C 245.8 108.4 239.2 114.8 231.2 114.8 C 223.2 114.8 216.8 108.4 216.8 100.4 C 216.8 92.4 223.2 85.8 231.2 85.8 Z M 231.2 110.4 C 236.8 110.4 241.2 105.8 241.2 100.4 C 241.2 94.8 236.8 90.4 231.2 90.4 C 225.8 90.4 221.2 94.8 221.2 100.4 C 221.2 105.8 225.8 110.4 231.2 110.4 Z M 231.2 94.6 C 234.4 94.6 237 97.2 237 100.4 C 237 103.6 234.4 106.2 231.2 106.2 C 228 106.2 225.4 103.6 225.4 100.4 C 225.4 97.2 228 94.6 231.2 94.6 Z" id="1" vector-effect="non-scaling-stroke"/><path d="M 328 20.8 L 418 180.6 L 460 180.6 L 370 20.8 L 328 20.8 Z M 460 20.8 L 455.8 20.8 L 455.8 166.2 L 460 173.8 L 460 20.8 Z M 328 180.6 L 332.2 180.6 L 332.2 35.2 L 328 27.8 L 328 180.6 Z M 452.4 20.8 L 448.2 20.8 L 448.2 153 L 452.4 160.4 L 452.4 20.8 Z M 335.6 180.6 L 339.8 180.6 L 339.8 48.6 L 335.6 41.2 L 335.6 180.6 Z M 444.8 20.8 L 440.6 20.8 L 440.6 139.6 L 444.8 147 L 444.8 20.8 Z M 343 180.6 L 347.2 180.6 L 347.2 62 L 343 54.6 L 343 180.6 Z M 437.4 20.8 L 433.2 20.8 L 433.2 126.2 L 437.4 133.6 L 437.4 20.8 Z M 350.6 180.6 L 354.8 180.6 L 354.8 75.4 L 350.6 68 L 350.6 180.6 Z M 429.8 20.8 L 425.6 20.8 L 425.6 112.8 L 429.8 120.2 L 429.8 20.8 Z M 358.2 180.6 L 362.4 180.6 L 362.4 88.8 L 358.2 81.4 L 358.2 180.6 Z M 422.2 20.8 L 418.2 20.8 L 418.2 99.4 L 422.2 106.8 L 422.2 20.8 Z M 365.8 180.6 L 370 180.6 L 370 102.2 L 365.8 94.8 L 365.8 180.6 Z" id="2" vector-effect="non-scaling-stroke"/><path d="M 474.8 20.6 L 474.8 59.2 L 595 59.2 L 595 20.6 L 474.8 20.6 Z M 536.6 180.4 L 540.8 180.4 L 540.8 62.6 L 536.6 62.6 L 536.6 180.4 Z M 521.4 180.4 L 525.6 180.4 L 525.6 62.6 L 521.4 62.6 L 521.4 180.4 Z M 548.4 180.4 L 548.4 62.6 L 544.2 62.6 L 544.2 180.4 L 548.4 180.4 Z M 529 62.6 L 529 180.4 L 533.2 180.4 L 533.2 62.6 L 529 62.6 Z M 551.6 180.4 L 555.8 180.4 L 555.8 62.6 L 551.6 62.6 L 551.6 180.4 Z M 514 62.6 L 514 180.4 L 518.2 180.4 L 518.2 62.6 L 514 62.6 Z" id="3" vector-effect="non-scaling-stroke"/><path d="M 645.8 180.4 L 650 180.4 L 650 33.4 C 648.8 35.2 647.4 37 645.8 38.6 L 645.8 180.4 Z M 612.2 180.4 L 612.2 38.6 C 610.6 37 609.2 35.2 608 33.4 L 608 180.4 L 612.2 180.4 Z M 615.6 41.2 L 615.6 180.4 L 619.8 180.4 L 619.8 43.6 C 618.2 43 616.8 42.2 615.6 41.2 Z M 638.2 180.4 L 642.4 180.4 L 642.4 41.2 C 641 42.2 639.6 43 638.2 43.6 L 638.2 180.4 Z M 630.6 180.4 L 634.8 180.4 L 634.8 44.6 C 633.4 45 632 45.2 630.6 45.2 L 630.6 180.4 Z M 623 180.4 L 627.2 180.4 L 627.2 45.2 C 625.8 45.2 624.4 45 623 44.6 L 623 180.4 Z M 629 42 C 640.6 42 650 32.6 650 21 C 650 9.4 640.6 0 629 0 C 617.4 0 608 9.4 608 21 C 608 32.6 617.4 42 629 42 Z" id="4" vector-effect="non-scaling-stroke"/><path d="M 670 20.8 L 760 180.6 L 802 180.6 L 712 20.8 L 670 20.8 Z M 802 20.8 L 797.8 20.8 L 797.8 166.2 L 802 173.8 L 802 20.8 Z M 670 180.6 L 674.2 180.6 L 674.2 35.2 L 670 27.8 L 670 180.6 Z M 794.4 20.8 L 790.2 20.8 L 790.2 153 L 794.4 160.4 L 794.4 20.8 Z M 677.6 180.6 L 681.8 180.6 L 681.8 48.6 L 677.6 41.2 L 677.6 180.6 Z M 786.8 20.8 L 782.6 20.8 L 782.6 139.6 L 786.8 147 L 786.8 20.8 Z M 685 180.6 L 689.2 180.6 L 689.2 62 L 685 54.6 L 685 180.6 Z M 779.4 20.8 L 775.2 20.8 L 775.2 126.2 L 779.4 133.6 L 779.4 20.8 Z M 692.6 180.6 L 696.8 180.6 L 696.8 75.4 L 692.6 68 L 692.6 180.6 Z M 771.8 20.8 L 767.6 20.8 L 767.6 112.8 L 771.8 120.2 L 771.8 20.8 Z M 700.2 180.6 L 704.4 180.6 L 704.4 88.8 L 700.2 81.4 L 700.2 180.6 Z M 764.2 20.8 L 760.2 20.8 L 760.2 99.4 L 764.2 106.8 L 764.2 20.8 Z M 707.8 180.6 L 712 180.6 L 712 102.2 L 707.8 94.8 L 707.8 180.6 Z" id="5" vector-effect="non-scaling-stroke"/><path d="M 819.8 20.6 L 819.8 123 C 819.8 158.8 849 188 884.8 188 C 920.8 188 950 158.8 950 123 L 950 20.6 L 945.8 20.6 L 945.8 123 C 945.8 156.6 918.4 183.8 884.8 183.8 C 851.4 183.8 824 156.6 824 123 L 824 20.6 L 819.8 20.6 Z M 941 123 L 941 20.6 L 936.8 20.6 L 936.8 123 C 936.8 151.6 913.6 174.8 884.8 174.8 C 856.2 174.8 833 151.4 833 123 L 833 20.6 L 828.8 20.6 L 828.8 123 C 828.8 153.8 853.8 179 884.6 179 C 915.8 179 941 153.8 941 123 Z M 884.6 170 L 884.8 170 C 911 170 932 148.8 932 122.8 L 932 20.6 L 927.8 20.6 L 927.8 122.8 C 927.8 146.6 908.4 166 884.6 165.8 C 861 165.8 842 146.4 842 123 L 842 20.6 L 837.8 20.6 L 837.8 123 C 837.8 148.8 858.6 169.8 884.6 170 Z M 846.8 20.6 L 846.8 123 C 846.8 143.8 863.6 160.8 884.4 161 L 884.8 161 C 906 161 923 143.8 923 122.8 L 923 20.6 L 918.8 20.6 L 918.8 122.8 C 918.8 141.6 903.8 156.8 885.2 156.8 C 866.4 156.8 851 141.8 851 123 L 851 20.6 L 846.8 20.6 Z M 855.8 20.6 L 855.8 123 C 855.8 138.8 868.4 151.8 884.2 152.2 L 884.8 152.2 C 901 152.2 914 138.8 914 122.8 L 914 20.6 L 909.8 20.6 L 909.8 122.8 C 909.8 136.4 898.6 148 884.8 148 C 871.2 148 860 136.6 860 123 L 860 20.6 L 855.8 20.6 Z M 884 143.2 L 884.8 143.2 C 896 143.2 905 133.8 905 122.8 L 905 20.6 L 900.8 20.6 L 900.8 122.8 C 900.8 131.6 893.8 139 885 139 C 876 139 869 131.8 869 123 L 869 20.6 L 864.8 20.6 L 864.8 123 C 864.8 133.8 873.2 142.6 884 143.2 Z" id="6" vector-effect="non-scaling-stroke"/><path d="M 970 20.6 L 970 123 C 970 158.8 999.2 188 1035 188 C 1071 188 1100.2 158.8 1100.2 123 L 1100.2 20.6 L 1096 20.6 L 1096 123 C 1096 156.6 1068.6 183.8 1035 183.8 C 1001.6 183.8 974.2 156.6 974.2 123 L 974.2 20.6 L 970 20.6 Z M 1091.2 123 L 1091.2 20.6 L 1087 20.6 L 1087 123 C 1087 151.6 1063.8 174.8 1035 174.8 C 1006.4 174.8 983.2 151.4 983.2 123 L 983.2 20.6 L 979 20.6 L 979 123 C 979 153.8 1004 179 1034.8 179 C 1066 179 1091.2 153.8 1091.2 123 Z M 1034.8 170 L 1035 170 C 1061.2 170 1082.2 148.8 1082.2 122.8 L 1082.2 20.6 L 1078 20.6 L 1078 122.8 C 1078 146.6 1058.6 166 1034.8 165.8 C 1011.2 165.8 992.2 146.4 992.2 123 L 992.2 20.6 L 988 20.6 L 988 123 C 988 148.8 1008.8 169.8 1034.8 170 Z M 997 20.6 L 997 123 C 997 143.8 1013.8 160.8 1034.6 161 L 1035 161 C 1056.2 161 1073.2 143.8 1073.2 122.8 L 1073.2 20.6 L 1069 20.6 L 1069 122.8 C 1069 141.6 1054 156.8 1035.4 156.8 C 1016.6 156.8 1001.2 141.8 1001.2 123 L 1001.2 20.6 L 997 20.6 Z M 1006 20.6 L 1006 123 C 1006 138.8 1018.6 151.8 1034.4 152.2 L 1035 152.2 C 1051.2 152.2 1064.2 138.8 1064.2 122.8 L 1064.2 20.6 L 1060 20.6 L 1060 122.8 C 1060 136.4 1048.8 148 1035 148 C 1021.4 148 1010.2 136.6 1010.2 123 L 1010.2 20.6 L 1006 20.6 Z M 1034.2 143.2 L 1035 143.2 C 1046.2 143.2 1055.2 133.8 1055.2 122.8 L 1055.2 20.6 L 1051 20.6 L 1051 122.8 C 1051 131.6 1044 139 1035.2 139 C 1026.2 139 1019.2 131.8 1019.2 123 L 1019.2 20.6 L 1015 20.6 L 1015 123 C 1015 133.8 1023.4 142.6 1034.2 143.2 Z" id="7" vector-effect="non-scaling-stroke"/><path d="M 1204 132.2 L 1243 92.2 L 1243 24 L 1204 62.8 L 1165.4 24 L 1165.4 92.2 L 1204 132.2 Z M 1253.8 180.4 L 1258 180.4 L 1258 20.6 L 1253.8 20.6 L 1253.8 180.4 Z M 1246.4 180.4 L 1250.6 180.4 L 1250.6 20.6 L 1246.4 20.6 L 1246.4 180.4 Z M 1261.4 180.4 L 1265.6 180.4 L 1265.6 20.6 L 1261.4 20.6 L 1261.4 180.4 Z M 1269 20.6 L 1269 180.4 L 1273.2 180.4 L 1273.2 20.6 L 1269 20.6 Z M 1276.4 180.4 L 1280.6 180.4 L 1280.6 20.6 L 1276.4 20.6 L 1276.4 180.4 Z M 1284 20.6 L 1284 180.4 L 1288.2 180.4 L 1288.2 20.6 L 1284 20.6 Z M 1135.2 20.6 L 1135.2 180.4 L 1139.4 180.4 L 1139.4 20.6 L 1135.2 20.6 Z M 1120.2 20.6 L 1120.2 180.4 L 1124.4 180.4 L 1124.4 20.6 L 1120.2 20.6 Z M 1147 180.4 L 1147 20.6 L 1142.8 20.6 L 1142.8 180.4 L 1147 180.4 Z M 1132 180.4 L 1132 20.6 L 1127.8 20.6 L 1127.8 180.4 L 1132 180.4 Z M 1158 20.6 L 1158 180.4 L 1162.2 180.4 L 1162.2 20.6 L 1158 20.6 Z M 1154.6 180.4 L 1154.6 20.6 L 1150.4 20.6 L 1150.4 180.4 L 1154.6 180.4 Z" id="8" vector-effect="non-scaling-stroke"/></g></svg>